<?xml version="1.0" encoding="UTF-8"?>
<svg width="23px" height="48px" viewBox="0 0 23 48" version="1.1" xmlns="http://www.w3.org/2000/svg" xmlns:xlink="http://www.w3.org/1999/xlink">
    <!-- Generator: Sketch 52.5 (67469) - http://www.bohemiancoding.com/sketch -->
    <title>Artboard</title>
    <desc>Created with Sketch.</desc>
    <g id="Artboard" stroke="none" stroke-width="1" fill="none" fill-rule="evenodd">
        <path d="M22.9987481,18.0099459 C22.9987221,19.3903863 21.8794431,20.5094478 20.4987481,20.5094478 L14.3992511,20.5094478 C13.5708231,20.5094478 12.8992511,19.8380005 12.8992511,19.0097286 L12.8992511,15.0734689 C12.8992511,14.7973786 12.6753931,14.5735625 12.3992511,14.5735625 C12.2883901,14.5735625 12.1806741,14.6103986 12.0930361,14.6782799 L1.58147508,22.82018 C0.926582077,23.327438 0.806977077,24.2694485 1.31433008,24.9242179 C1.39136708,25.0236383 1.48060508,25.1129765 1.57994508,25.1901271 L12.0925261,33.354544 C12.3106051,33.5239113 12.6247191,33.4844556 12.7941181,33.2664175 C12.8622601,33.1787089 12.8992511,33.0708101 12.8992511,32.9597499 L12.8992511,29.0035609 C12.8992511,28.175289 13.5708231,27.5038418 14.3992511,27.5038418 L20.4987481,27.5038438 C21.8794591,27.5038438 22.9987471,28.6229202 22.9987481,30.0033726 L22.9987661,48.000003 L21.9987661,48.000003 L21.9987481,30.0033736 C21.9987481,29.1751027 21.3271751,28.5036565 20.4987481,28.5036565 L14.3992511,28.5036545 C14.1231081,28.5036545 13.8992511,28.7274696 13.8992511,29.0035609 L13.8992511,32.9597499 C13.8992511,33.2929315 13.7882801,33.6166259 13.5838521,33.8797506 C13.0756551,34.5338661 12.1333151,34.6522329 11.4790771,34.1441301 L0.966496077,25.9797132 C0.800930077,25.8511293 0.652199077,25.7022332 0.523804077,25.5365322 C-0.321783923,24.4452486 -0.122441923,22.8752327 0.969046077,22.029803 L11.4806071,13.8879029 C11.7435201,13.6842591 12.0666701,13.5737498 12.3992511,13.5737498 C13.2276781,13.5737498 13.8992511,14.245197 13.8992511,15.0734689 L13.8992511,19.0097286 C13.8992511,19.2858199 14.1231081,19.509635 14.3992511,19.509635 L20.4987481,19.509635 C21.3271631,19.509635 21.9987331,18.8381958 21.9987481,18.0099369 L21.9987481,0.000101981462 L22.9987661,2.99999999e-06 L22.9987481,18.0099459 Z" id="Path-2-Copy-4" fill="#EBEBEB" transform="translate(11.499383, 24.000003) rotate(180.000000) translate(-11.499383, -24.000003) "></path>
    </g>
</svg>