<svg width="16" height="16" viewBox="0 0 24 24" fill="none" xmlns="http://www.w3.org/2000/svg">
<g id="Icons/Iconly Black/Light/Ask author">
<g id="Ask author">
<circle id="Ellipse_738" cx="12.111" cy="12.111" r="9.61098" stroke="white" stroke-width="1.5" stroke-linecap="round" stroke-linejoin="round"/>
<path id="Fill 1567" fill-rule="evenodd" clip-rule="evenodd" d="M16 9.66667C16 7.36917 14.2056 5.5 12 5.5C9.7944 5.5 8 7.36917 8 9.66667C8 10.1275 8.3576 10.5 8.8 10.5C9.2424 10.5 9.6 10.1275 9.6 9.66667C9.6 8.28833 10.6768 7.16667 12 7.16667C13.3232 7.16667 14.4 8.28833 14.4 9.66667C14.4 11.045 13.3232 12.1667 12 12.1667C11.5576 12.1667 11.2 12.5392 11.2 13V14.6667C11.2 15.1275 11.5576 15.5 12 15.5C12.4424 15.5 12.8 15.1275 12.8 14.6667V13.7483C14.6232 13.3625 16 11.6783 16 9.66667" fill="white"/>
<path id="Fill 1569" fill-rule="evenodd" clip-rule="evenodd" d="M12 16.5C11.447 16.5 11 16.947 11 17.5C11 18.053 11.447 18.5 12 18.5C12.553 18.5 13 18.053 13 17.5C13 16.947 12.553 16.5 12 16.5" fill="white"/>
</g>
</g>
</svg>
