<?xml version="1.0" encoding="utf-8"?>
<!-- Generator: Adobe Illustrator 23.0.1, SVG Export Plug-In . SVG Version: 6.00 Build 0)  -->
<svg version="1.1" id="Layer_1" xmlns="http://www.w3.org/2000/svg" xmlns:xlink="http://www.w3.org/1999/xlink" x="0px" y="0px"
	 viewBox="0 0 400 400" style="enable-background:new 0 0 400 400;" xml:space="preserve">
<style type="text/css">
	.st0{fill:#F6F6F6;}
	.st1{fill:none;stroke:#E3E8E9;stroke-width:0.65;stroke-miterlimit:10;}
	.st2{fill:none;stroke:#E3E8E9;stroke-width:0.65;stroke-linejoin:round;stroke-miterlimit:10;}
</style>
<rect class="st0" width="400" height="400"/>
<g>
	
		<ellipse transform="matrix(0.9039 -0.4278 0.4278 0.9039 -77.3006 71.4899)" class="st1" cx="120.43" cy="207.75" rx="17.15" ry="29.25"/>
	
		<ellipse transform="matrix(0.3366 -0.9416 0.9416 0.3366 -115.7385 251.2127)" class="st1" cx="120.43" cy="207.75" rx="29.25" ry="17.15"/>
	
		<ellipse transform="matrix(0.3366 -0.9416 0.9416 0.3366 -115.7385 251.2127)" class="st1" cx="120.43" cy="207.75" rx="17.15" ry="29.25"/>
	<circle class="st1" cx="121.16" cy="208.52" r="6.05"/>
</g>
<g>
	<polyline class="st1" points="318.01,327.07 321,330.06 294.4,356.66 247.19,309.45 273.79,282.85 276.78,285.84 	"/>
	<g>
		<path class="st2" d="M299.03,304.82c1.52-10.83-12.63-12.63-20.61-20.61l-4.96,4.96c-4.34,4.34-18.77,18.77-20.14,20.14
			c7.98,7.98,22.13,9.79,20.61,20.61"/>
		<path class="st2" d="M273.93,329.92c10.83-1.52,12.63,12.63,20.61,20.61c1.36-1.36,15.79-15.79,20.14-20.14l4.96-4.96
			c-7.98-7.98-9.79-22.13-20.61-20.61L273.93,329.92z"/>
	</g>
	<path class="st2" d="M264.4,308.41c5.54,3.47,11.57,5.98,13.93,10.41"/>
	<path class="st2" d="M271.05,301.76c5.54,3.47,11.57,5.98,13.93,10.41"/>
	<path class="st2" d="M277.7,295.11c5.54,3.47,11.57,5.98,13.93,10.41"/>
	<g>
		<path class="st2" d="M295.95,339.96c-3.47-5.54-5.98-11.57-10.41-13.93"/>
		<path class="st2" d="M302.6,333.31c-3.47-5.54-5.98-11.57-10.41-13.93"/>
		<path class="st2" d="M309.24,326.66c-3.47-5.54-5.98-11.57-10.41-13.93"/>
	</g>
</g>
<g>
	
		<rect x="46.27" y="327.24" transform="matrix(0.8865 -0.4628 0.4628 0.8865 -144.7628 75.9369)" class="st1" width="72.25" height="11.56"/>
	<g>
		<line class="st1" x1="56.77" y1="346.4" x2="59.45" y2="351.52"/>
		<line class="st1" x1="63.18" y1="343.05" x2="65.85" y2="348.18"/>
		<line class="st1" x1="69.58" y1="339.71" x2="72.26" y2="344.83"/>
		<line class="st1" x1="75.99" y1="336.37" x2="78.66" y2="341.49"/>
		<line class="st1" x1="82.39" y1="333.02" x2="85.07" y2="338.15"/>
		<line class="st1" x1="88.8" y1="329.68" x2="91.47" y2="334.8"/>
		<line class="st1" x1="95.2" y1="326.34" x2="97.88" y2="331.46"/>
		<line class="st1" x1="101.61" y1="322.99" x2="104.28" y2="328.12"/>
		<line class="st1" x1="108.01" y1="319.65" x2="110.69" y2="324.77"/>
	</g>
	<path class="st1" d="M50.9,342.95c-8.31-15.92-2.14-35.56,13.78-43.87s35.56-2.14,43.87,13.78"/>
	<path class="st1" d="M62.44,336.92c-4.49-9.43-0.75-20.8,8.59-25.67c9.34-4.87,20.81-1.45,25.97,7.63"/>
</g>
<g>
	<polygon class="st1" points="365.01,219.52 320.14,233.95 303.52,182.29 	"/>
	<polygon class="st1" points="341.35,215.95 326.4,220.76 320.86,203.54 	"/>
</g>
<g>
	
		<rect x="327.33" y="54.67" transform="matrix(0.903 -0.4296 0.4296 0.903 -1.6599 151.3341)" class="st2" width="14.1" height="49.34"/>
	<path class="st2" d="M330.15,54.04l-12.73,6.06l-2.9-6.09c-1.19-2.49-0.13-5.48,2.37-6.66l3.7-1.76c2.49-1.19,5.48-0.13,6.66,2.37
		L330.15,54.04z"/>
	<polygon class="st2" points="350.03,112.23 338.61,104.65 351.34,98.59 	"/>
	<line class="st2" x1="350.82" y1="104.05" x2="343.18" y2="107.68"/>
	<line class="st2" x1="329.21" y1="61.64" x2="345.36" y2="95.59"/>
	<line class="st2" x1="323.91" y1="64.16" x2="340.06" y2="98.11"/>
</g>
<g>
	
		<rect x="52.25" y="53.11" transform="matrix(0.8432 0.5376 -0.5376 0.8432 57.0399 -28.8693)" class="st2" width="51.53" height="60.49"/>
	
		<rect x="68.5" y="63.32" transform="matrix(0.8432 0.5376 -0.5376 0.8432 51.4592 -35.2389)" class="st2" width="35.29" height="14.56"/>
	<line class="st2" x1="88.87" y1="91.6" x2="81.31" y2="86.78"/>
	<g>
		<line class="st2" x1="73.4" y1="77.99" x2="64.65" y2="79.92"/>
		<line class="st2" x1="68.06" y1="74.58" x2="70" y2="83.33"/>
	</g>
	<g>
		<line class="st2" x1="63.61" y1="87.46" x2="58.79" y2="95.01"/>
		<line class="st2" x1="57.42" y1="88.83" x2="64.98" y2="93.64"/>
	</g>
	<line class="st2" x1="81.64" y1="102.94" x2="74.08" y2="98.12"/>
	<line class="st2" x1="79.83" y1="105.77" x2="72.28" y2="100.95"/>
</g>
<g>
	<path class="st1" d="M211.7,69.96l-1.12-5.06c-14.11,3.13-23.01,17.1-19.89,31.22s17.1,23.01,31.22,19.89l-1.13-5.12"/>
	<circle class="st1" cx="217.62" cy="90.15" r="21"/>
	<line class="st1" x1="203.03" y1="113.04" x2="196.13" y2="123.88"/>
	<line class="st1" x1="204.56" y1="129.25" x2="188.54" y2="119.05"/>
</g>
</svg>
