<?xml version="1.0" encoding="UTF-8"?>
<svg width="500px" height="184px" viewBox="0 0 500 184" version="1.1" xmlns="http://www.w3.org/2000/svg" xmlns:xlink="http://www.w3.org/1999/xlink">
    <!-- Generator: Sketch 52.5 (67469) - http://www.bohemiancoding.com/sketch -->
    <title>BeED_OS</title>
    <desc>Created with Sketch.</desc>
    <defs>
        <linearGradient x1="4.21107298%" y1="50%" x2="98.2794436%" y2="50%" id="linearGradient-1">
            <stop stop-color="#FFFFFF" offset="0%"></stop>
            <stop stop-color="#FFFFFF" offset="100%"></stop>
        </linearGradient>
    </defs>
    <g id="Page-1" stroke="none" stroke-width="1" fill="none" fill-rule="evenodd">
        <g id="BeED_OS" fill="url(#linearGradient-1)" fill-rule="nonzero">
            <path d="M101.9,116.7 C101.2,116.4 100.7,115.6 100.7,114.7 C100.7,113.8 101.2,113 101.9,112.7 C124.6,102.4 133.9,93.3 133.9,81.4 C133.9,71.7 127.3,62.7 115.2,55.9 C103.3,49.2 87.4,45.5 70.6,45.5 C54.3,45.5 39.9,48.8 27.9,55.6 C9.6,65.8 0,86.2 0,114.7 C0,143.2 9.6,163.6 27.9,173.9 C39.9,180.7 54.3,184 70.6,184 C87.4,184 103.3,180.3 115.2,173.6 C127.3,166.8 133.9,157.8 133.9,148.1 C133.9,136.1 124.6,127 101.9,116.7 Z M72.9,162 C56.1,162 45.4,159.5 37.6,153.3 C36.1,152.2 32.7,149.5 29.7,143.5 C26.1,136.3 24.3,126.6 24.3,114.7 C24.3,102.8 26.1,93.1 29.7,85.9 C32.7,79.9 36.1,77.2 37.6,76.1 C45.4,69.9 56.1,67.4 72.9,67.4 C94.7,67.4 108.6,75.7 108.6,81.4 C108.6,91 79.4,100.5 65.4,105.1 C64,105.5 62.8,105.9 61.7,106.3 C57,107.9 55,111.2 55,114.8 C55,118.4 56.9,121.7 61.7,123.3 C62.8,123.7 64,124.1 65.4,124.5 C79.4,129.1 108.6,138.5 108.6,148.2 C108.7,153.7 94.8,162 72.9,162 Z M254.6,112.5 C257.7,118.9 255.1,125 248.2,128.6 C235.4,135.2 219.7,138.6 204.2,138.6 C187.4,138.6 171.5,134.9 159.6,128.2 C147.5,121.4 140.9,112.4 140.9,102.7 C140.9,90.8 150.2,81.7 172.9,71.4 C173.6,71.1 174.1,70.3 174.1,69.4 C174.1,68.5 173.6,67.7 172.9,67.4 C150.2,57.1 140.9,48 140.9,36.1 C140.9,26.4 147.5,17.4 159.6,10.6 C171.5,3.9 187.4,0.2 204.2,0.2 C219.7,0.2 235.4,3.6 248.2,10.2 C255.1,13.8 257.8,19.9 254.6,26.3 C252.6,30.3 246.7,34.2 238.6,30.8 C238.4,30.7 221,22 201.8,22 C180,22 166.1,30.3 166.1,36 C166.1,45.6 195.3,55.1 209.3,59.7 C210.7,60.1 211.9,60.5 213,60.9 C217.1,62.3 219.4,65.3 219.4,69.4 C219.4,73.5 217.1,76.5 213,77.9 C211.9,78.3 210.7,78.7 209.3,79.1 C195.3,83.7 166.1,93.1 166.1,102.8 C166.1,108.5 180,116.8 201.8,116.8 C221,116.8 238.4,108.1 238.6,108 C246.7,104.6 252.6,108.6 254.6,112.5 Z M372.1,157.8 C375.2,164.2 372.6,170.3 365.7,173.9 C352.9,180.5 337.2,183.9 321.7,183.9 C304.9,183.9 289,180.2 277.1,173.5 C265,166.7 258.4,157.7 258.4,148 C258.4,136.1 267.7,127 290.4,116.7 C291.1,116.4 291.6,115.6 291.6,114.7 C291.6,113.8 291.1,113 290.4,112.7 C267.7,102.4 258.4,93.3 258.4,81.4 C258.4,71.7 265,62.7 277.1,55.9 C289,49.2 304.9,45.5 321.7,45.5 C337.2,45.5 352.9,48.9 365.7,55.5 C372.6,59.1 375.3,65.2 372.1,71.6 C370.1,75.6 364.2,79.5 356.1,76.1 C355.9,76 338.5,67.3 319.3,67.3 C297.5,67.3 283.6,75.6 283.6,81.3 C283.6,90.9 312.8,100.4 326.8,105 C328.2,105.4 329.4,105.8 330.5,106.2 C334.6,107.6 336.9,110.6 336.9,114.7 C336.9,118.8 334.6,121.8 330.5,123.2 C329.4,123.6 328.2,124 326.8,124.4 C312.8,129 283.6,138.4 283.6,148.1 C283.6,153.8 297.5,162.1 319.3,162.1 C338.5,162.1 355.9,153.4 356.1,153.3 C364.2,149.9 370.1,153.8 372.1,157.8 Z M199.9,183.9 C181.7,183.4 165.5,179.7 151.2,173.1 C144.7,170.1 141.4,163 144,156.9 C146.6,150.8 154.1,148.4 160.2,150.9 C171.7,155.7 185.3,159.5 200.5,160 C212.4,160.3 224,157.8 235,154.7 C241.4,152.9 248.5,156.3 250.3,162.6 C252.1,168.9 248.2,175.3 241.7,177.7 C230,181.9 215.6,184.4 199.9,183.9 Z M479.3,67.5 C469.1,57.7 450,46 420.1,46 C420.1,46 420.1,46 420.1,46 C412.3,46 405.5,46.3 395.7,48.4 C388.8,49.9 383.5,55.8 383.5,63.1 C383.5,64.5 383.7,65.8 384,67.1 C386.5,77.1 390.7,95.9 390.8,113.9 C390.8,113.9 390.8,113.9 390.8,113.9 C390.7,131.9 386.6,150.7 384,160.7 C383.7,162 383.5,163.3 383.5,164.7 C383.5,172 388.8,177.9 395.7,179.4 C405.5,181.5 412.3,181.8 420.1,181.8 C420.1,181.8 420.1,181.8 420.1,181.8 C450,181.8 469.1,170.1 479.3,160.3 C492.2,147.9 499.8,131 500,113.8 C499.8,96.8 492.3,79.9 479.3,67.5 Z M462.4,146 C453,155.3 437.2,162.5 414,161 C406.5,160.5 408.1,155.5 408.5,154.1 C411.8,139.8 413.6,126.8 413.7,114.1 C413.6,101.3 411.9,88.4 408.5,74.1 C408.2,72.7 406.5,67.7 414,67.2 C437.2,65.7 453,72.9 462.4,82.2 C470.9,90.6 475.7,102 475.9,114.1 C475.7,126.2 470.9,137.5 462.4,146 Z" id="Shape"></path>
        </g>
    </g>
</svg>