<?xml version="1.0" encoding="UTF-8"?>
<svg width="80px" height="33px" viewBox="0 0 80 33" version="1.1" xmlns="http://www.w3.org/2000/svg" xmlns:xlink="http://www.w3.org/1999/xlink">
    <!-- Generator: Sketch 52.5 (67469) - http://www.bohemiancoding.com/sketch -->
    <title>BEED</title>
    <desc>Created with Sketch.</desc>
    <defs>
        <linearGradient x1="4.21107298%" y1="50%" x2="98.2794436%" y2="50%" id="linearGradient-1">
            <stop stop-color="#3398C7" offset="0%"></stop>
            <stop stop-color="#3377C7" offset="100%"></stop>
        </linearGradient>
    </defs>
    <g id="BEED" stroke="none" stroke-width="1" fill="none" fill-rule="evenodd">
        <g id="BEED_LMS_Color" fill-rule="nonzero">
            <path d="M16.304,22.0152339 C16.192,21.9662677 16.112,21.835691 16.112,21.6887922 C16.112,21.5418934 16.192,21.4113166 16.304,21.3623504 C19.936,19.6811752 21.424,18.1958651 21.424,16.2535365 C21.424,14.6702938 20.368,13.2013058 18.432,12.0914037 C16.528,10.9978237 13.984,10.3939064 11.296,10.3939064 C8.688,10.3939064 6.384,10.9325354 4.464,12.0424374 C1.536,13.7072905 0,17.0369967 0,21.6887922 C0,26.3405876 1.536,29.6702938 4.464,31.351469 C6.384,32.4613711 8.688,33 11.296,33 C13.984,33 16.528,32.3960827 18.432,31.3025027 C20.368,30.1926007 21.424,28.7236126 21.424,27.14037 C21.424,25.1817193 19.936,23.6964091 16.304,22.0152339 Z M11.664,29.4091404 C8.976,29.4091404 7.264,29.0010881 6.016,27.9891186 C5.776,27.8095756 5.232,27.3688792 4.752,26.3895539 C4.176,25.2143634 3.888,23.6311208 3.888,21.6887922 C3.888,19.7464635 4.176,18.1632209 4.752,16.9880305 C5.232,16.0087051 5.776,15.5680087 6.016,15.3884657 C7.264,14.3764962 8.976,13.968444 11.664,13.968444 C15.152,13.968444 17.376,15.3231774 17.376,16.2535365 C17.376,17.820457 12.704,19.3710555 10.464,20.1218716 C10.24,20.18716 10.048,20.2524483 9.872,20.3177367 C9.12,20.5788901 8.8,21.117519 8.8,21.7051143 C8.8,22.2927095 9.104,22.8313384 9.872,23.0924918 C10.048,23.1577802 10.24,23.2230686 10.464,23.2883569 C12.704,24.039173 17.376,25.5734494 17.376,27.1566921 C17.392,28.054407 15.168,29.4091404 11.664,29.4091404 Z M40.736,21.3297062 C41.232,22.3743199 40.816,23.3699674 39.712,23.9575626 C37.664,25.0348205 35.152,25.5897715 32.672,25.5897715 C29.984,25.5897715 27.44,24.9858542 25.536,23.8922742 C23.6,22.7823721 22.544,21.3133841 22.544,19.7301415 C22.544,17.7878128 24.032,16.3025027 27.664,14.6213275 C27.776,14.5723613 27.856,14.4417845 27.856,14.2948857 C27.856,14.1479869 27.776,14.0174102 27.664,13.968444 C24.032,12.2872688 22.544,10.8019587 22.544,8.85963003 C22.544,7.27638738 23.6,5.80739935 25.536,4.69749728 C27.44,3.6039173 29.984,3 32.672,3 C35.152,3 37.664,3.55495103 39.712,4.63220892 C40.816,5.21980413 41.248,6.21545158 40.736,7.26006529 C40.416,7.91294886 39.472,8.54951034 38.176,7.9945593 C38.144,7.97823721 35.36,6.55821545 32.288,6.55821545 C28.8,6.55821545 26.576,7.91294886 26.576,8.84330794 C26.576,10.4102285 31.248,11.960827 33.488,12.7116431 C33.712,12.7769314 33.904,12.8422198 34.08,12.9075082 C34.736,13.1360174 35.104,13.6256801 35.104,14.2948857 C35.104,14.9640914 34.736,15.4537541 34.08,15.6822633 C33.904,15.7475517 33.712,15.81284 33.488,15.8781284 C31.248,16.6289445 26.576,18.1632209 26.576,19.7464635 C26.576,20.6768226 28.8,22.031556 32.288,22.031556 C35.36,22.031556 38.144,20.6115343 38.176,20.5952122 C39.472,20.0402612 40.416,20.6931447 40.736,21.3297062 Z M59.536,28.7236126 C60.032,29.7682263 59.616,30.7638738 58.512,31.351469 C56.464,32.4287269 53.952,32.9836779 51.472,32.9836779 C48.784,32.9836779 46.24,32.3797606 44.336,31.2861806 C42.4,30.1762786 41.344,28.7072905 41.344,27.1240479 C41.344,25.1817193 42.832,23.6964091 46.464,22.0152339 C46.576,21.9662677 46.656,21.835691 46.656,21.6887922 C46.656,21.5418934 46.576,21.4113166 46.464,21.3623504 C42.832,19.6811752 41.344,18.1958651 41.344,16.2535365 C41.344,14.6702938 42.4,13.2013058 44.336,12.0914037 C46.24,10.9978237 48.784,10.3939064 51.472,10.3939064 C53.952,10.3939064 56.464,10.9488575 58.512,12.0261153 C59.616,12.6137106 60.048,13.609358 59.536,14.6539717 C59.216,15.3068553 58.272,15.9434168 56.976,15.3884657 C56.944,15.3721436 54.16,13.9521219 51.088,13.9521219 C47.6,13.9521219 45.376,15.3068553 45.376,16.2372144 C45.376,17.8041349 50.048,19.3547334 52.288,20.1055495 C52.512,20.1708379 52.704,20.2361262 52.88,20.3014146 C53.536,20.5299238 53.904,21.0195865 53.904,21.6887922 C53.904,22.3579978 53.536,22.8476605 52.88,23.0761697 C52.704,23.1414581 52.512,23.2067465 52.288,23.2720348 C50.048,24.0228509 45.376,25.5571273 45.376,27.14037 C45.376,28.0707291 47.6,29.4254625 51.088,29.4254625 C54.16,29.4254625 56.944,28.0054407 56.976,27.9891186 C58.272,27.4341676 59.216,28.0707291 59.536,28.7236126 Z M31.984,32.9836779 C29.072,32.9020675 26.48,32.2981502 24.192,31.2208923 C23.152,30.7312296 22.624,29.5723613 23.04,28.5767138 C23.456,27.5810664 24.656,27.1893362 25.632,27.5973885 C27.472,28.3808487 29.648,29.0010881 32.08,29.0826986 C33.984,29.1316649 35.84,28.7236126 37.6,28.2176279 C38.624,27.9238303 39.76,28.4787813 40.048,29.5070729 C40.336,30.5353645 39.712,31.5799782 38.672,31.9717084 C36.8,32.6572361 34.496,33.0652884 31.984,32.9836779 Z M76.688,13.9847661 C75.056,12.3852013 72,10.4755169 67.216,10.4755169 C67.216,10.4755169 67.216,10.4755169 67.216,10.4755169 C65.968,10.4755169 64.88,10.5244831 63.312,10.867247 C62.208,11.1120783 61.36,12.0750816 61.36,13.2665941 C61.36,13.4951034 61.392,13.7072905 61.44,13.9194777 C61.84,15.5516866 62.512,18.6202394 62.528,21.5582155 C62.528,21.5582155 62.528,21.5582155 62.528,21.5582155 C62.512,24.4961915 61.856,27.5647443 61.44,29.1969532 C61.392,29.4091404 61.36,29.6213275 61.36,29.8498368 C61.36,31.0413493 62.208,32.0043526 63.312,32.2491839 C64.88,32.5919478 65.968,32.640914 67.216,32.640914 C67.216,32.640914 67.216,32.640914 67.216,32.640914 C72,32.640914 75.056,30.7312296 76.688,29.1316649 C78.752,27.1077258 79.968,24.3492927 80,21.5418934 C79.968,18.7671382 78.768,16.0087051 76.688,13.9847661 Z M73.984,26.7976061 C72.48,28.3155604 69.952,29.4907508 66.24,29.2459195 C65.04,29.164309 65.296,28.3482046 65.36,28.1196953 C65.888,25.7856366 66.176,23.663765 66.192,21.5908596 C66.176,19.5016322 65.904,17.3960827 65.36,15.0620239 C65.312,14.8335147 65.04,14.0174102 66.24,13.9357998 C69.952,13.6909684 72.48,14.8661589 73.984,16.3841132 C75.344,17.7551687 76.112,19.6158868 76.144,21.5908596 C76.112,23.5658324 75.344,25.4102285 73.984,26.7976061 Z" id="Shape" fill="url(#linearGradient-1)"></path>
            <g id="Group" transform="translate(45.000000, 0.000000)" fill="#3384C7">
                <path d="M1.46,6.66489362 L4.7,6.66489362 L4.7,7.85638298 L0,7.85638298 L0,0.111702128 L1.46,0.111702128 L1.46,6.66489362 Z M7.445,0.111702128 L9.3,5.81914894 L9.33,5.81914894 L11.2,0.111702128 L13.11,0.111702128 L13.11,7.85638298 L11.65,7.85638298 L11.65,5.54787234 L11.79,2.12765957 L11.76,2.12234043 L9.81,7.85638298 L8.83,7.85638298 L6.89,2.14361702 L6.86,2.14893617 L7,5.54787234 L7,7.85638298 L5.54,7.85638298 L5.54,0.111702128 L7.445,0.111702128 Z M18.405,5.83510638 C18.405,5.53723256 18.3058344,5.29787324 18.1075,5.11702128 C17.9091656,4.93616931 17.5616691,4.76595825 17.065,4.60638298 C16.198329,4.3404242 15.5433356,4.02482453 15.1,3.65957447 C14.6566644,3.29432441 14.435,2.79432941 14.435,2.15957447 C14.435,1.52481952 14.6891641,1.00620769 15.1975,0.603723404 C15.7058359,0.201239122 16.354996,0 17.145,0 C17.945004,0 18.5966642,0.226061569 19.1,0.678191489 C19.6033358,1.13032141 19.8466667,1.68793995 19.83,2.35106383 L19.82,2.38297872 L18.405,2.38297872 C18.405,2.0248209 18.2925011,1.73493018 18.0675,1.51329787 C17.8424989,1.29166556 17.5266686,1.18085106 17.12,1.18085106 C16.7299981,1.18085106 16.4283344,1.27304872 16.215,1.45744681 C16.0016656,1.64184489 15.895,1.87765814 15.895,2.16489362 C15.895,2.42730628 16.0091656,2.64272965 16.2375,2.81117021 C16.4658344,2.97961077 16.8599971,3.15780048 17.42,3.34574468 C18.2233373,3.58333452 18.8316646,3.89716117 19.245,4.28723404 C19.6583354,4.67730691 19.865,5.18971314 19.865,5.82446809 C19.865,6.48759197 19.6191691,7.01063637 19.1275,7.39361702 C18.6358309,7.77659767 17.9866707,7.96808511 17.18,7.96808511 C16.3866627,7.96808511 15.6950029,7.7508887 15.105,7.31648936 C14.5149971,6.88209003 14.2283332,6.27305357 14.245,5.4893617 L14.255,5.45744681 L15.675,5.45744681 C15.675,5.91844203 15.8074987,6.2562046 16.0725,6.47074468 C16.3375013,6.68528477 16.7066643,6.79255319 17.18,6.79255319 C17.5766686,6.79255319 17.8799989,6.70567462 18.09,6.53191489 C18.3000011,6.35815517 18.405,6.12588798 18.405,5.83510638 Z" id="LMS"></path>
            </g>
        </g>
    </g>
</svg>