<?xml version="1.0" encoding="UTF-8"?>
<svg width="310px" height="233px" viewBox="0 0 310 233" version="1.1" xmlns="http://www.w3.org/2000/svg" xmlns:xlink="http://www.w3.org/1999/xlink">
    <!-- Generator: Sketch 52.5 (67469) - http://www.bohemiancoding.com/sketch -->
    <title>Artboard</title>
    <desc>Created with Sketch.</desc>
    <g id="Artboard" stroke="none" stroke-width="1" fill="none" fill-rule="evenodd">
        <g id="Illustration_02" transform="translate(2.000000, 1.000000)">
            <rect id="Rectangle" stroke="#4B9CE9" stroke-width="2.2677" stroke-linecap="round" stroke-linejoin="round" x="147.28" y="114.38" width="83.42" height="105.71"></rect>
            <rect id="Rectangle" stroke="#4B9CE9" stroke-width="2.2677" stroke-linecap="round" stroke-linejoin="round" x="63.9" y="114.38" width="83.42" height="105.71"></rect>
            <circle id="Oval" stroke="#4B9CE9" stroke-width="2.2677" cx="74.69" cy="32.88" r="31.52"></circle>
            <path d="M95.42,9.13 L108.63,2.24 C114.55,-0.85 121.86,1.45 124.95,7.37 C128.04,13.29 125.74,20.6 119.82,23.69 L41.06,64.78 C35.14,67.87 27.83,65.57 24.74,59.65 C21.65,53.73 23.95,46.42 29.87,43.33 L43.86,36.03" id="Path" stroke="#4B9CE9" stroke-width="2.2677"></path>
            <path d="M106.46,30.67 L54.67,57.22 C60.11,61.7 67.09,64.39 74.69,64.39 C92.1,64.39 106.21,50.28 106.21,32.87 C106.21,31.93 106.17,30.99 106.09,30.07" id="Path" fill="#4B9CE9"></path>
            <path d="M75,65.03 L75,100.06" id="Path" stroke="#4B9CE9" stroke-width="2.2677"></path>
            <path d="M106.59,100.69 L43.42,100.69" id="Path" stroke="#4B9CE9" stroke-width="2.2677" stroke-linecap="round"></path>
            <path d="M305.2,230.6 L83.44,230.6" id="Path" stroke="#4B9CE9" stroke-width="2.2677" stroke-linecap="round" stroke-linejoin="round"></path>
            <path d="M62.59,91.14 L0.5,91.14" id="Path" stroke="#4B9CE9" stroke-width="2.2677" stroke-linecap="round"></path>
            <path d="M214.62,12.5 L99.52,12.5" id="Path" stroke="#4B9CE9" stroke-width="2.2677" stroke-linecap="round"></path>
            <path d="M214.62,20.78 L103.98,20.78" id="Path" stroke="#4B9CE9" stroke-width="2.2677" stroke-linecap="round"></path>
            <path d="M214.62,29.05 L106.53,29.05" id="Path" stroke="#4B9CE9" stroke-width="2.2677" stroke-linecap="round"></path>
            <path d="M195.2,37.33 L106.53,37.33" id="Path" stroke="#4B9CE9" stroke-width="2.2677" stroke-linecap="round"></path>
            <path d="M214.62,37.33 L212.55,37.33" id="Path" stroke="#4B9CE9" stroke-width="2.2677" stroke-linecap="round"></path>
            <path d="M219.87,45.61 L103.66,45.61" id="Path" stroke="#4B9CE9" stroke-width="2.2677" stroke-linecap="round"></path>
            <path d="M203.32,53.89 L98.88,53.89" id="Path" stroke="#4B9CE9" stroke-width="2.2677" stroke-linecap="round"></path>
            <path d="M214.62,62.17 L86.79,62.17" id="Path" stroke="#4B9CE9" stroke-width="2.2677" stroke-linecap="round"></path>
            <path d="M214.62,70.45 L86.15,70.45" id="Path" stroke="#4B9CE9" stroke-width="2.2677" stroke-linecap="round"></path>
            <path d="M208.89,78.72 L86.15,78.72" id="Path" stroke="#4B9CE9" stroke-width="2.2677" stroke-linecap="round"></path>
            <path d="M210.16,87 L86.15,87" id="Path" stroke="#4B9CE9" stroke-width="2.2677" stroke-linecap="round"></path>
            <path d="M234.66,220.09 L234.66,114.38" id="Path" stroke="#4B9CE9" stroke-width="2.2677" stroke-linecap="round" stroke-linejoin="round"></path>
            <path d="M238.34,220.09 L238.34,114.38" id="Path" stroke="#4B9CE9" stroke-width="2.2677" stroke-linecap="round" stroke-linejoin="round"></path>
            <path d="M242.02,220.09 L242.02,114.38" id="Path" stroke="#4B9CE9" stroke-width="2.2677" stroke-linecap="round"></path>
            <path d="M27.56,208.31 L17.29,208.31 C16.46,208.31 15.78,207.63 15.78,206.8 L15.78,195.58" id="Path" stroke="#4B9CE9" stroke-width="2.2677" stroke-linecap="round" stroke-linejoin="round"></path>
            <polygon id="Path" stroke="#4B9CE9" stroke-width="2.2677" stroke-linecap="round" stroke-linejoin="round" points="41.69 208.64 33.57 208.64 33.57 165.64 37.63 160.54 41.69 165.64"></polygon>
            <rect id="Rectangle" stroke="#4B9CE9" stroke-width="2.2677" stroke-linecap="round" stroke-linejoin="round" x="33.57" y="209.14" width="8.12" height="6.62"></rect>
            <path d="M24,215.65 C21.76,215.65 19.94,213.83 19.94,211.59 L19.94,176.29 C19.94,174.12 21.35,172.2 23.42,171.55 C23.8,171.43 24.21,171.43 24.59,171.55 C26.66,172.2 28.07,174.12 28.07,176.29 L28.07,211.59 C28.06,213.83 26.24,215.65 24,215.65 Z" id="Path" stroke="#4B9CE9" stroke-width="2.2677" stroke-linecap="round" stroke-linejoin="round"></path>
            <path d="M24,168.51 L24,171.38" id="Path" stroke="#4B9CE9" stroke-width="2.2677" stroke-linecap="round" stroke-linejoin="round"></path>
            <polyline id="Path" stroke="#4B9CE9" stroke-width="2.2677" stroke-linecap="round" stroke-linejoin="round" points="223.08 106.34 214 106.34 209.31 77.22 223.08 77.22"></polyline>
            <polyline id="Path" stroke="#4B9CE9" stroke-width="2.2677" stroke-linecap="round" stroke-linejoin="round" points="223.08 106.34 232.63 106.34 237.33 77.22 222.26 77.22"></polyline>
            <g id="Group" transform="translate(8.000000, 111.000000)" stroke="#4B9CE9" stroke-linecap="round" stroke-linejoin="round" stroke-width="2.2677">
                <path d="M11.1,22.34 L7.09,22.34 C5.39,22.34 3.95,21.11 3.68,19.43 L0.55,0.04 L11.1,0.04" id="Path"></path>
                <path d="M11.1,22.34 L15.47,22.34 C17.17,22.34 18.61,21.11 18.88,19.43 L22.01,0.04 L11.46,0.04" id="Path"></path>
            </g>
            <path d="M223.35,60.46 C217.1,60.46 209.94,59.55 203.24,52.86 C196.54,46.16 195.06,38.62 195.06,32.17" id="Path" stroke="#4B9CE9" stroke-width="2.2677" stroke-linecap="round"></path>
            <path d="M195.16,32.08 C201.61,32.08 209.15,33.56 215.85,40.26 C222.55,46.96 223.45,54.12 223.45,60.37" id="Path" stroke="#4B9CE9" stroke-width="2.2677" stroke-linecap="round"></path>
            <path d="M223.53,34.67 C227.03,34.67 231.04,34.16 234.79,30.42 C238.54,26.67 239.37,22.45 239.37,18.84" id="Path" stroke="#4B9CE9" stroke-width="2.2677" stroke-linecap="round"></path>
            <path d="M223.48,34.62 C223.48,31.12 223.99,27.11 227.73,23.36 C231.47,19.61 235.7,18.78 239.31,18.78" id="Path" stroke="#4B9CE9" stroke-width="2.2677" stroke-linecap="round"></path>
            <path d="M223.48,34.79 L223.48,77.13" id="Path" stroke="#4B9CE9" stroke-width="2.2677"></path>
            <path d="M223.48,34.15 L223.48,71.4" id="Path" stroke="#4B9CE9" stroke-width="2.2677"></path>
            <rect id="Rectangle" stroke="#4B9CE9" stroke-width="2.2677" stroke-linecap="round" stroke-linejoin="round" x="154.92" y="120.75" width="7.64" height="7.64"></rect>
            <rect id="Rectangle" stroke="#4B9CE9" stroke-width="2.2677" stroke-linecap="round" stroke-linejoin="round" x="162.56" y="120.75" width="7.64" height="7.64"></rect>
            <rect id="Rectangle" stroke="#4B9CE9" stroke-width="2.2677" stroke-linecap="round" stroke-linejoin="round" x="86.79" y="120.75" width="7.64" height="7.64"></rect>
            <rect id="Rectangle" stroke="#4B9CE9" stroke-width="2.2677" stroke-linecap="round" stroke-linejoin="round" x="94.43" y="120.75" width="7.64" height="7.64"></rect>
            <rect id="Rectangle" stroke="#4B9CE9" stroke-width="2.2677" stroke-linecap="round" stroke-linejoin="round" x="102.07" y="120.75" width="7.64" height="7.64"></rect>
            <rect id="Rectangle" stroke="#4B9CE9" stroke-width="2.2677" stroke-linecap="round" stroke-linejoin="round" x="109.71" y="120.75" width="7.64" height="7.64"></rect>
            <rect id="Rectangle" stroke="#4B9CE9" stroke-width="2.2677" stroke-linecap="round" stroke-linejoin="round" x="117.35" y="120.75" width="7.64" height="7.64"></rect>
            <rect id="Rectangle" stroke="#4B9CE9" stroke-width="2.2677" stroke-linecap="round" stroke-linejoin="round" x="124.99" y="120.75" width="7.64" height="7.64"></rect>
            <rect id="Rectangle" stroke="#4B9CE9" stroke-width="2.2677" stroke-linecap="round" stroke-linejoin="round" x="154.92" y="128.39" width="7.64" height="7.64"></rect>
            <rect id="Rectangle" stroke="#4B9CE9" stroke-width="2.2677" stroke-linecap="round" stroke-linejoin="round" x="162.56" y="128.39" width="7.64" height="7.64"></rect>
            <rect id="Rectangle" stroke="#4B9CE9" stroke-width="2.2677" stroke-linecap="round" stroke-linejoin="round" x="86.79" y="128.39" width="7.64" height="7.64"></rect>
            <rect id="Rectangle" stroke="#4B9CE9" stroke-width="2.2677" stroke-linecap="round" stroke-linejoin="round" x="94.43" y="128.39" width="7.64" height="7.64"></rect>
            <rect id="Rectangle" stroke="#4B9CE9" stroke-width="2.2677" stroke-linecap="round" stroke-linejoin="round" x="102.07" y="128.39" width="7.64" height="7.64"></rect>
            <rect id="Rectangle" stroke="#4B9CE9" stroke-width="2.2677" stroke-linecap="round" stroke-linejoin="round" x="109.71" y="128.39" width="7.64" height="7.64"></rect>
            <rect id="Rectangle" stroke="#4B9CE9" stroke-width="2.2677" stroke-linecap="round" stroke-linejoin="round" x="117.35" y="128.39" width="7.64" height="7.64"></rect>
            <rect id="Rectangle" stroke="#4B9CE9" stroke-width="2.2677" stroke-linecap="round" stroke-linejoin="round" x="124.99" y="128.39" width="7.64" height="7.64"></rect>
            <rect id="Rectangle" stroke="#4B9CE9" stroke-width="2.2677" stroke-linecap="round" stroke-linejoin="round" x="154.92" y="136.04" width="7.64" height="7.64"></rect>
            <rect id="Rectangle" stroke="#4B9CE9" stroke-width="2.2677" stroke-linecap="round" stroke-linejoin="round" x="162.56" y="136.04" width="7.64" height="7.64"></rect>
            <rect id="Rectangle" stroke="#4B9CE9" stroke-width="2.2677" stroke-linecap="round" stroke-linejoin="round" x="86.79" y="136.04" width="7.64" height="7.64"></rect>
            <rect id="Rectangle" stroke="#4B9CE9" stroke-width="2.2677" stroke-linecap="round" stroke-linejoin="round" x="94.43" y="136.04" width="7.64" height="7.64"></rect>
            <rect id="Rectangle" stroke="#4B9CE9" stroke-width="2.2677" stroke-linecap="round" stroke-linejoin="round" x="102.07" y="136.04" width="7.64" height="7.64"></rect>
            <rect id="Rectangle" stroke="#4B9CE9" stroke-width="2.2677" stroke-linecap="round" stroke-linejoin="round" x="109.71" y="136.04" width="7.64" height="7.64"></rect>
            <rect id="Rectangle" stroke="#4B9CE9" stroke-width="2.2677" stroke-linecap="round" stroke-linejoin="round" x="117.35" y="136.04" width="7.64" height="7.64"></rect>
            <rect id="Rectangle" stroke="#4B9CE9" stroke-width="2.2677" stroke-linecap="round" stroke-linejoin="round" x="124.99" y="136.04" width="7.64" height="7.64"></rect>
            <rect id="Rectangle" stroke="#4B9CE9" stroke-width="2.2677" stroke-linecap="round" stroke-linejoin="round" x="154.92" y="143.68" width="7.64" height="7.64"></rect>
            <rect id="Rectangle" stroke="#4B9CE9" stroke-width="2.2677" stroke-linecap="round" stroke-linejoin="round" x="162.56" y="143.68" width="7.64" height="7.64"></rect>
            <rect id="Rectangle" stroke="#4B9CE9" stroke-width="2.2677" stroke-linecap="round" stroke-linejoin="round" x="86.79" y="143.68" width="7.64" height="7.64"></rect>
            <rect id="Rectangle" stroke="#4B9CE9" stroke-width="2.2677" stroke-linecap="round" stroke-linejoin="round" x="94.43" y="143.68" width="7.64" height="7.64"></rect>
            <rect id="Rectangle" stroke="#4B9CE9" stroke-width="2.2677" stroke-linecap="round" stroke-linejoin="round" x="102.07" y="143.68" width="7.64" height="7.64"></rect>
            <rect id="Rectangle" stroke="#4B9CE9" stroke-width="2.2677" stroke-linecap="round" stroke-linejoin="round" x="109.71" y="143.68" width="7.64" height="7.64"></rect>
            <rect id="Rectangle" stroke="#4B9CE9" stroke-width="2.2677" stroke-linecap="round" stroke-linejoin="round" x="117.35" y="143.68" width="7.64" height="7.64"></rect>
            <rect id="Rectangle" stroke="#4B9CE9" stroke-width="2.2677" stroke-linecap="round" stroke-linejoin="round" x="124.99" y="143.68" width="7.64" height="7.64"></rect>
            <rect id="Rectangle" stroke="#4B9CE9" stroke-width="2.2677" stroke-linecap="round" stroke-linejoin="round" x="154.92" y="151.32" width="7.64" height="7.64"></rect>
            <rect id="Rectangle" stroke="#4B9CE9" stroke-width="2.2677" stroke-linecap="round" stroke-linejoin="round" x="162.56" y="151.32" width="7.64" height="7.64"></rect>
            <rect id="Rectangle" stroke="#4B9CE9" stroke-width="2.2677" stroke-linecap="round" stroke-linejoin="round" x="86.79" y="151.32" width="7.64" height="7.64"></rect>
            <rect id="Rectangle" stroke="#4B9CE9" stroke-width="2.2677" stroke-linecap="round" stroke-linejoin="round" x="94.43" y="151.32" width="7.64" height="7.64"></rect>
            <rect id="Rectangle" stroke="#4B9CE9" stroke-width="2.2677" stroke-linecap="round" stroke-linejoin="round" x="102.07" y="151.32" width="7.64" height="7.64"></rect>
            <rect id="Rectangle" stroke="#4B9CE9" stroke-width="2.2677" stroke-linecap="round" stroke-linejoin="round" x="109.71" y="151.32" width="7.64" height="7.64"></rect>
            <rect id="Rectangle" stroke="#4B9CE9" stroke-width="2.2677" stroke-linecap="round" stroke-linejoin="round" x="117.35" y="151.32" width="7.64" height="7.64"></rect>
            <rect id="Rectangle" stroke="#4B9CE9" stroke-width="2.2677" stroke-linecap="round" stroke-linejoin="round" x="124.99" y="151.32" width="7.64" height="7.64"></rect>
            <rect id="Rectangle" stroke="#4B9CE9" stroke-width="2.2677" stroke-linecap="round" stroke-linejoin="round" x="154.92" y="158.96" width="7.64" height="7.64"></rect>
            <rect id="Rectangle" stroke="#4B9CE9" stroke-width="2.2677" stroke-linecap="round" stroke-linejoin="round" x="162.56" y="158.96" width="7.64" height="7.64"></rect>
            <rect id="Rectangle" stroke="#4B9CE9" stroke-width="2.2677" stroke-linecap="round" stroke-linejoin="round" x="86.79" y="158.96" width="7.64" height="7.64"></rect>
            <rect id="Rectangle" stroke="#4B9CE9" stroke-width="2.2677" stroke-linecap="round" stroke-linejoin="round" x="94.43" y="158.96" width="7.64" height="7.64"></rect>
            <rect id="Rectangle" stroke="#4B9CE9" stroke-width="2.2677" stroke-linecap="round" stroke-linejoin="round" x="102.07" y="158.96" width="7.64" height="7.64"></rect>
            <rect id="Rectangle" stroke="#4B9CE9" stroke-width="2.2677" stroke-linecap="round" stroke-linejoin="round" x="109.71" y="158.96" width="7.64" height="7.64"></rect>
            <rect id="Rectangle" stroke="#4B9CE9" stroke-width="2.2677" stroke-linecap="round" stroke-linejoin="round" x="117.35" y="158.96" width="7.64" height="7.64"></rect>
            <rect id="Rectangle" stroke="#4B9CE9" stroke-width="2.2677" stroke-linecap="round" stroke-linejoin="round" x="124.99" y="158.96" width="7.64" height="7.64"></rect>
            <rect id="Rectangle" stroke="#4B9CE9" stroke-width="2.2677" stroke-linecap="round" stroke-linejoin="round" x="154.92" y="166.6" width="7.64" height="7.64"></rect>
            <rect id="Rectangle" stroke="#4B9CE9" stroke-width="2.2677" stroke-linecap="round" stroke-linejoin="round" x="162.56" y="166.6" width="7.64" height="7.64"></rect>
            <rect id="Rectangle" stroke="#4B9CE9" stroke-width="2.2677" stroke-linecap="round" stroke-linejoin="round" x="86.79" y="166.6" width="7.64" height="7.64"></rect>
            <rect id="Rectangle" stroke="#4B9CE9" stroke-width="2.2677" stroke-linecap="round" stroke-linejoin="round" x="94.43" y="166.6" width="7.64" height="7.64"></rect>
            <rect id="Rectangle" stroke="#4B9CE9" stroke-width="2.2677" stroke-linecap="round" stroke-linejoin="round" x="102.07" y="166.6" width="7.64" height="7.64"></rect>
            <rect id="Rectangle" stroke="#4B9CE9" stroke-width="2.2677" stroke-linecap="round" stroke-linejoin="round" x="109.71" y="166.6" width="7.64" height="7.64"></rect>
            <rect id="Rectangle" stroke="#4B9CE9" stroke-width="2.2677" stroke-linecap="round" stroke-linejoin="round" x="117.35" y="166.6" width="7.64" height="7.64"></rect>
            <rect id="Rectangle" stroke="#4B9CE9" stroke-width="2.2677" stroke-linecap="round" stroke-linejoin="round" x="124.99" y="166.6" width="7.64" height="7.64"></rect>
            <rect id="Rectangle" stroke="#4B9CE9" stroke-width="2.2677" stroke-linecap="round" stroke-linejoin="round" x="154.92" y="174.24" width="7.64" height="7.64"></rect>
            <rect id="Rectangle" stroke="#4B9CE9" stroke-width="2.2677" stroke-linecap="round" stroke-linejoin="round" x="162.56" y="174.24" width="7.64" height="7.64"></rect>
            <rect id="Rectangle" stroke="#4B9CE9" stroke-width="2.2677" stroke-linecap="round" stroke-linejoin="round" x="86.79" y="174.24" width="7.64" height="7.64"></rect>
            <rect id="Rectangle" stroke="#4B9CE9" stroke-width="2.2677" stroke-linecap="round" stroke-linejoin="round" x="94.43" y="174.24" width="7.64" height="7.64"></rect>
            <rect id="Rectangle" stroke="#4B9CE9" stroke-width="2.2677" stroke-linecap="round" stroke-linejoin="round" x="102.07" y="174.24" width="7.64" height="7.64"></rect>
            <rect id="Rectangle" stroke="#4B9CE9" stroke-width="2.2677" stroke-linecap="round" stroke-linejoin="round" x="109.71" y="174.24" width="7.64" height="7.64"></rect>
            <rect id="Rectangle" stroke="#4B9CE9" stroke-width="2.2677" stroke-linecap="round" stroke-linejoin="round" x="117.35" y="174.24" width="7.64" height="7.64"></rect>
            <rect id="Rectangle" stroke="#4B9CE9" stroke-width="2.2677" stroke-linecap="round" stroke-linejoin="round" x="124.99" y="174.24" width="7.64" height="7.64"></rect>
            <rect id="Rectangle" stroke="#4B9CE9" stroke-width="2.2677" stroke-linecap="round" stroke-linejoin="round" x="154.92" y="181.88" width="7.64" height="7.64"></rect>
            <rect id="Rectangle" stroke="#4B9CE9" stroke-width="2.2677" stroke-linecap="round" stroke-linejoin="round" x="162.56" y="181.88" width="7.64" height="7.64"></rect>
            <rect id="Rectangle" stroke="#4B9CE9" stroke-width="2.2677" stroke-linecap="round" stroke-linejoin="round" x="86.79" y="181.88" width="7.64" height="7.64"></rect>
            <rect id="Rectangle" stroke="#4B9CE9" stroke-width="2.2677" stroke-linecap="round" stroke-linejoin="round" x="94.43" y="181.88" width="7.64" height="7.64"></rect>
            <rect id="Rectangle" stroke="#4B9CE9" stroke-width="2.2677" stroke-linecap="round" stroke-linejoin="round" x="102.07" y="181.88" width="7.64" height="7.64"></rect>
            <rect id="Rectangle" stroke="#4B9CE9" stroke-width="2.2677" stroke-linecap="round" stroke-linejoin="round" x="109.71" y="181.88" width="7.64" height="7.64"></rect>
            <rect id="Rectangle" stroke="#4B9CE9" stroke-width="2.2677" stroke-linecap="round" stroke-linejoin="round" x="117.35" y="181.88" width="7.64" height="7.64"></rect>
            <rect id="Rectangle" stroke="#4B9CE9" stroke-width="2.2677" stroke-linecap="round" stroke-linejoin="round" x="124.99" y="181.88" width="7.64" height="7.64"></rect>
            <rect id="Rectangle" stroke="#4B9CE9" stroke-width="2.2677" stroke-linecap="round" stroke-linejoin="round" x="154.92" y="189.53" width="7.64" height="7.64"></rect>
            <rect id="Rectangle" stroke="#4B9CE9" stroke-width="2.2677" stroke-linecap="round" stroke-linejoin="round" x="162.56" y="189.53" width="7.64" height="7.64"></rect>
            <rect id="Rectangle" stroke="#4B9CE9" stroke-width="2.2677" stroke-linecap="round" stroke-linejoin="round" x="86.79" y="189.53" width="7.64" height="7.64"></rect>
            <rect id="Rectangle" stroke="#4B9CE9" stroke-width="2.2677" stroke-linecap="round" stroke-linejoin="round" x="94.43" y="189.53" width="7.64" height="7.64"></rect>
            <rect id="Rectangle" stroke="#4B9CE9" stroke-width="2.2677" stroke-linecap="round" stroke-linejoin="round" x="102.07" y="189.53" width="7.64" height="7.64"></rect>
            <rect id="Rectangle" stroke="#4B9CE9" stroke-width="2.2677" stroke-linecap="round" stroke-linejoin="round" x="109.71" y="189.53" width="7.64" height="7.64"></rect>
            <rect id="Rectangle" stroke="#4B9CE9" stroke-width="2.2677" stroke-linecap="round" stroke-linejoin="round" x="117.35" y="189.53" width="7.64" height="7.64"></rect>
            <rect id="Rectangle" stroke="#4B9CE9" stroke-width="2.2677" stroke-linecap="round" stroke-linejoin="round" x="124.99" y="189.53" width="7.64" height="7.64"></rect>
            <rect id="Rectangle" stroke="#4B9CE9" stroke-width="2.2677" stroke-linecap="round" stroke-linejoin="round" x="154.92" y="197.17" width="7.64" height="7.64"></rect>
            <rect id="Rectangle" stroke="#4B9CE9" stroke-width="2.2677" stroke-linecap="round" stroke-linejoin="round" x="162.56" y="197.17" width="7.64" height="7.64"></rect>
            <rect id="Rectangle" stroke="#4B9CE9" stroke-width="2.2677" stroke-linecap="round" stroke-linejoin="round" x="86.79" y="197.17" width="7.64" height="7.64"></rect>
            <rect id="Rectangle" stroke="#4B9CE9" stroke-width="2.2677" stroke-linecap="round" stroke-linejoin="round" x="94.43" y="197.17" width="7.64" height="7.64"></rect>
            <rect id="Rectangle" stroke="#4B9CE9" stroke-width="2.2677" stroke-linecap="round" stroke-linejoin="round" x="102.07" y="197.17" width="7.64" height="7.64"></rect>
            <rect id="Rectangle" stroke="#4B9CE9" stroke-width="2.2677" stroke-linecap="round" stroke-linejoin="round" x="109.71" y="197.17" width="7.64" height="7.64"></rect>
            <rect id="Rectangle" stroke="#4B9CE9" stroke-width="2.2677" stroke-linecap="round" stroke-linejoin="round" x="117.35" y="197.17" width="7.64" height="7.64"></rect>
            <rect id="Rectangle" stroke="#4B9CE9" stroke-width="2.2677" stroke-linecap="round" stroke-linejoin="round" x="124.99" y="197.17" width="7.64" height="7.64"></rect>
            <rect id="Rectangle" stroke="#4B9CE9" stroke-width="2.2677" stroke-linecap="round" stroke-linejoin="round" x="170.2" y="120.75" width="7.64" height="7.64"></rect>
            <rect id="Rectangle" stroke="#4B9CE9" stroke-width="2.2677" stroke-linecap="round" stroke-linejoin="round" x="177.85" y="120.75" width="7.64" height="7.64"></rect>
            <rect id="Rectangle" stroke="#4B9CE9" stroke-width="2.2677" stroke-linecap="round" stroke-linejoin="round" x="185.49" y="120.75" width="7.64" height="7.64"></rect>
            <rect id="Rectangle" stroke="#4B9CE9" stroke-width="2.2677" stroke-linecap="round" stroke-linejoin="round" x="193.13" y="120.75" width="7.64" height="7.64"></rect>
            <rect id="Rectangle" stroke="#4B9CE9" stroke-width="2.2677" stroke-linecap="round" stroke-linejoin="round" x="200.77" y="120.75" width="7.64" height="7.64"></rect>
            <rect id="Rectangle" stroke="#4B9CE9" stroke-width="2.2677" stroke-linecap="round" stroke-linejoin="round" x="208.41" y="120.75" width="7.64" height="7.64"></rect>
            <rect id="Rectangle" stroke="#4B9CE9" stroke-width="2.2677" stroke-linecap="round" stroke-linejoin="round" x="170.2" y="128.39" width="7.64" height="7.64"></rect>
            <rect id="Rectangle" stroke="#4B9CE9" stroke-width="2.2677" stroke-linecap="round" stroke-linejoin="round" x="177.85" y="128.39" width="7.64" height="7.64"></rect>
            <rect id="Rectangle" stroke="#4B9CE9" stroke-width="2.2677" stroke-linecap="round" stroke-linejoin="round" x="185.49" y="128.39" width="7.64" height="7.64"></rect>
            <rect id="Rectangle" stroke="#4B9CE9" stroke-width="2.2677" stroke-linecap="round" stroke-linejoin="round" x="193.13" y="128.39" width="7.64" height="7.64"></rect>
            <rect id="Rectangle" stroke="#4B9CE9" stroke-width="2.2677" stroke-linecap="round" stroke-linejoin="round" x="200.77" y="128.39" width="7.64" height="7.64"></rect>
            <rect id="Rectangle" stroke="#4B9CE9" stroke-width="2.2677" stroke-linecap="round" stroke-linejoin="round" x="208.41" y="128.39" width="7.64" height="7.64"></rect>
            <rect id="Rectangle" stroke="#4B9CE9" stroke-width="2.2677" stroke-linecap="round" stroke-linejoin="round" x="170.2" y="136.04" width="7.64" height="7.64"></rect>
            <rect id="Rectangle" stroke="#4B9CE9" stroke-width="2.2677" stroke-linecap="round" stroke-linejoin="round" x="177.85" y="136.04" width="7.64" height="7.64"></rect>
            <rect id="Rectangle" stroke="#4B9CE9" stroke-width="2.2677" stroke-linecap="round" stroke-linejoin="round" x="185.49" y="136.04" width="7.64" height="7.64"></rect>
            <rect id="Rectangle" stroke="#4B9CE9" stroke-width="2.2677" stroke-linecap="round" stroke-linejoin="round" x="193.13" y="136.04" width="7.64" height="7.64"></rect>
            <rect id="Rectangle" stroke="#4B9CE9" stroke-width="2.2677" stroke-linecap="round" stroke-linejoin="round" x="200.77" y="136.04" width="7.64" height="7.64"></rect>
            <rect id="Rectangle" stroke="#4B9CE9" stroke-width="2.2677" stroke-linecap="round" stroke-linejoin="round" x="208.41" y="136.04" width="7.64" height="7.64"></rect>
            <rect id="Rectangle" stroke="#4B9CE9" stroke-width="2.2677" stroke-linecap="round" stroke-linejoin="round" x="170.2" y="143.68" width="7.64" height="7.64"></rect>
            <rect id="Rectangle" stroke="#4B9CE9" stroke-width="2.2677" stroke-linecap="round" stroke-linejoin="round" x="177.85" y="143.68" width="7.64" height="7.64"></rect>
            <rect id="Rectangle" stroke="#4B9CE9" stroke-width="2.2677" stroke-linecap="round" stroke-linejoin="round" x="185.49" y="143.68" width="7.64" height="7.64"></rect>
            <rect id="Rectangle" stroke="#4B9CE9" stroke-width="2.2677" stroke-linecap="round" stroke-linejoin="round" x="193.13" y="143.68" width="7.64" height="7.64"></rect>
            <rect id="Rectangle" stroke="#4B9CE9" stroke-width="2.2677" stroke-linecap="round" stroke-linejoin="round" x="200.77" y="143.68" width="7.64" height="7.64"></rect>
            <rect id="Rectangle" stroke="#4B9CE9" stroke-width="2.2677" stroke-linecap="round" stroke-linejoin="round" x="208.41" y="143.68" width="7.64" height="7.64"></rect>
            <rect id="Rectangle" stroke="#4B9CE9" stroke-width="2.2677" stroke-linecap="round" stroke-linejoin="round" x="170.2" y="151.32" width="7.64" height="7.64"></rect>
            <rect id="Rectangle" stroke="#4B9CE9" stroke-width="2.2677" stroke-linecap="round" stroke-linejoin="round" x="177.85" y="151.32" width="7.64" height="7.64"></rect>
            <rect id="Rectangle" stroke="#4B9CE9" stroke-width="2.2677" stroke-linecap="round" stroke-linejoin="round" x="185.49" y="151.32" width="7.64" height="7.64"></rect>
            <rect id="Rectangle" stroke="#4B9CE9" stroke-width="2.2677" stroke-linecap="round" stroke-linejoin="round" x="193.13" y="151.32" width="7.64" height="7.64"></rect>
            <rect id="Rectangle" stroke="#4B9CE9" stroke-width="2.2677" stroke-linecap="round" stroke-linejoin="round" x="200.77" y="151.32" width="7.64" height="7.64"></rect>
            <rect id="Rectangle" stroke="#4B9CE9" stroke-width="2.2677" stroke-linecap="round" stroke-linejoin="round" x="208.41" y="151.32" width="7.64" height="7.64"></rect>
            <rect id="Rectangle" stroke="#4B9CE9" stroke-width="2.2677" stroke-linecap="round" stroke-linejoin="round" x="170.2" y="158.96" width="7.64" height="7.64"></rect>
            <rect id="Rectangle" stroke="#4B9CE9" stroke-width="2.2677" stroke-linecap="round" stroke-linejoin="round" x="177.85" y="158.96" width="7.64" height="7.64"></rect>
            <rect id="Rectangle" stroke="#4B9CE9" stroke-width="2.2677" stroke-linecap="round" stroke-linejoin="round" x="185.49" y="158.96" width="7.64" height="7.64"></rect>
            <rect id="Rectangle" stroke="#4B9CE9" stroke-width="2.2677" stroke-linecap="round" stroke-linejoin="round" x="193.13" y="158.96" width="7.64" height="7.64"></rect>
            <rect id="Rectangle" stroke="#4B9CE9" stroke-width="2.2677" stroke-linecap="round" stroke-linejoin="round" x="200.77" y="158.96" width="7.64" height="7.64"></rect>
            <rect id="Rectangle" stroke="#4B9CE9" stroke-width="2.2677" stroke-linecap="round" stroke-linejoin="round" x="208.41" y="158.96" width="7.64" height="7.64"></rect>
            <rect id="Rectangle" stroke="#4B9CE9" stroke-width="2.2677" stroke-linecap="round" stroke-linejoin="round" x="170.2" y="166.6" width="7.64" height="7.64"></rect>
            <rect id="Rectangle" stroke="#4B9CE9" stroke-width="2.2677" stroke-linecap="round" stroke-linejoin="round" x="177.85" y="166.6" width="7.64" height="7.64"></rect>
            <rect id="Rectangle" stroke="#4B9CE9" stroke-width="2.2677" stroke-linecap="round" stroke-linejoin="round" x="185.49" y="166.6" width="7.64" height="7.64"></rect>
            <rect id="Rectangle" stroke="#4B9CE9" stroke-width="2.2677" stroke-linecap="round" stroke-linejoin="round" x="193.13" y="166.6" width="7.64" height="7.64"></rect>
            <rect id="Rectangle" stroke="#4B9CE9" stroke-width="2.2677" stroke-linecap="round" stroke-linejoin="round" x="200.77" y="166.6" width="7.64" height="7.64"></rect>
            <rect id="Rectangle" stroke="#4B9CE9" stroke-width="2.2677" stroke-linecap="round" stroke-linejoin="round" x="208.41" y="166.6" width="7.64" height="7.64"></rect>
            <rect id="Rectangle" stroke="#4B9CE9" stroke-width="2.2677" stroke-linecap="round" stroke-linejoin="round" x="170.2" y="174.24" width="7.64" height="7.64"></rect>
            <rect id="Rectangle" stroke="#4B9CE9" stroke-width="2.2677" stroke-linecap="round" stroke-linejoin="round" x="177.85" y="174.24" width="7.64" height="7.64"></rect>
            <rect id="Rectangle" stroke="#4B9CE9" stroke-width="2.2677" stroke-linecap="round" stroke-linejoin="round" x="185.49" y="174.24" width="7.64" height="7.64"></rect>
            <rect id="Rectangle" stroke="#4B9CE9" stroke-width="2.2677" stroke-linecap="round" stroke-linejoin="round" x="193.13" y="174.24" width="7.64" height="7.64"></rect>
            <rect id="Rectangle" stroke="#4B9CE9" stroke-width="2.2677" stroke-linecap="round" stroke-linejoin="round" x="200.77" y="174.24" width="7.64" height="7.64"></rect>
            <rect id="Rectangle" stroke="#4B9CE9" stroke-width="2.2677" stroke-linecap="round" stroke-linejoin="round" x="208.41" y="174.24" width="7.64" height="7.64"></rect>
            <rect id="Rectangle" stroke="#4B9CE9" stroke-width="2.2677" stroke-linecap="round" stroke-linejoin="round" x="170.2" y="181.88" width="7.64" height="7.64"></rect>
            <rect id="Rectangle" stroke="#4B9CE9" stroke-width="2.2677" stroke-linecap="round" stroke-linejoin="round" x="177.85" y="181.88" width="7.64" height="7.64"></rect>
            <rect id="Rectangle" stroke="#4B9CE9" stroke-width="2.2677" stroke-linecap="round" stroke-linejoin="round" x="185.49" y="181.88" width="7.64" height="7.64"></rect>
            <rect id="Rectangle" stroke="#4B9CE9" stroke-width="2.2677" stroke-linecap="round" stroke-linejoin="round" x="193.13" y="181.88" width="7.64" height="7.64"></rect>
            <rect id="Rectangle" stroke="#4B9CE9" stroke-width="2.2677" stroke-linecap="round" stroke-linejoin="round" x="200.77" y="181.88" width="7.64" height="7.64"></rect>
            <rect id="Rectangle" stroke="#4B9CE9" stroke-width="2.2677" stroke-linecap="round" stroke-linejoin="round" x="208.41" y="181.88" width="7.64" height="7.64"></rect>
            <rect id="Rectangle" stroke="#4B9CE9" stroke-width="2.2677" stroke-linecap="round" stroke-linejoin="round" x="170.2" y="189.53" width="7.64" height="7.64"></rect>
            <rect id="Rectangle" stroke="#4B9CE9" stroke-width="2.2677" stroke-linecap="round" stroke-linejoin="round" x="177.85" y="189.53" width="7.64" height="7.64"></rect>
            <rect id="Rectangle" stroke="#4B9CE9" stroke-width="2.2677" stroke-linecap="round" stroke-linejoin="round" x="185.49" y="189.53" width="7.64" height="7.64"></rect>
            <rect id="Rectangle" stroke="#4B9CE9" stroke-width="2.2677" stroke-linecap="round" stroke-linejoin="round" x="193.13" y="189.53" width="7.64" height="7.64"></rect>
            <rect id="Rectangle" stroke="#4B9CE9" stroke-width="2.2677" stroke-linecap="round" stroke-linejoin="round" x="200.77" y="189.53" width="7.64" height="7.64"></rect>
            <rect id="Rectangle" stroke="#4B9CE9" stroke-width="2.2677" stroke-linecap="round" stroke-linejoin="round" x="208.41" y="189.53" width="7.64" height="7.64"></rect>
            <rect id="Rectangle" stroke="#4B9CE9" stroke-width="2.2677" stroke-linecap="round" stroke-linejoin="round" x="170.2" y="197.17" width="7.64" height="7.64"></rect>
            <rect id="Rectangle" stroke="#4B9CE9" stroke-width="2.2677" stroke-linecap="round" stroke-linejoin="round" x="177.85" y="197.17" width="7.64" height="7.64"></rect>
            <rect id="Rectangle" stroke="#4B9CE9" stroke-width="2.2677" stroke-linecap="round" stroke-linejoin="round" x="185.49" y="197.17" width="7.64" height="7.64"></rect>
            <rect id="Rectangle" stroke="#4B9CE9" stroke-width="2.2677" stroke-linecap="round" stroke-linejoin="round" x="193.13" y="197.17" width="7.64" height="7.64"></rect>
            <rect id="Rectangle" stroke="#4B9CE9" stroke-width="2.2677" stroke-linecap="round" stroke-linejoin="round" x="200.77" y="197.17" width="7.64" height="7.64"></rect>
            <rect id="Rectangle" stroke="#4B9CE9" stroke-width="2.2677" stroke-linecap="round" stroke-linejoin="round" x="208.41" y="197.17" width="7.64" height="7.64"></rect>
            <g id="Group" transform="translate(266.000000, 97.000000)" stroke="#4B9CE9" stroke-linecap="round" stroke-width="2.2677">
                <rect id="Rectangle" x="0.36" y="7.71" width="39.09" height="9.31"></rect>
                <path d="M40,0.19 L31.21,7.71" id="Path"></path>
                <path d="M27.45,0.19 L18.66,7.71" id="Path"></path>
                <path d="M14.9,0.19 L6.11,7.71" id="Path"></path>
            </g>
            <g id="Group" transform="translate(253.000000, 126.000000)" stroke="#4B9CE9" stroke-linecap="round" stroke-linejoin="round" stroke-width="2.2677">
                <path d="M5.72,14.17 C2.73,14.17 0.31,11.75 0.31,8.76 L0.31,5.58 C0.31,2.59 2.73,0.17 5.72,0.17 C8.71,0.17 11.13,2.59 11.13,5.58 L11.13,8.76 C11.13,11.75 8.71,14.17 5.72,14.17 Z" id="Path"></path>
                <path d="M3.65,7.17 L7.79,7.17" id="Path"></path>
            </g>
            <path d="M198.7,46.09 C199.97,46.09 219.08,45.77 219.08,45.77 L222.26,50.86 L223.22,60.41 L216.22,59.77 L208.58,57.22 L202.85,52.44 L198.7,46.09 Z" id="Path" fill="#4B9CE9"></path>
            <rect id="Rectangle" fill="#4B9CE9" x="102.55" y="159.44" width="6.69" height="6.37"></rect>
            <rect id="Rectangle" fill="#4B9CE9" x="178.32" y="174.72" width="6.69" height="6.37"></rect>
            <rect id="Rectangle" fill="#4B9CE9" x="200.93" y="190" width="6.69" height="6.37"></rect>
            <rect id="Rectangle" fill="#4B9CE9" x="110.19" y="190" width="6.69" height="6.37"></rect>
            <rect id="Rectangle" fill="#4B9CE9" x="125.47" y="197.96" width="6.69" height="6.37"></rect>
            <polygon id="Path" fill="#4B9CE9" points="27.72 209.74 27.09 213.56 24.54 215.16 21.99 214.52 20.4 212.18 20.4 209.43 25.49 208.79"></polygon>
            <g id="Group" transform="translate(256.000000, 158.000000)" stroke="#4B9CE9" stroke-linecap="round" stroke-linejoin="round">
                <rect id="Rectangle" stroke-width="2.26768413" transform="translate(13.762995, 36.382585) rotate(-15.462158) translate(-13.762995, -36.382585) " x="5.01305625" y="20.7476944" width="17.4998775" height="31.2697811"></rect>
                <path d="M2.89,22.93 L0.05,12.64" id="Path" stroke-width="2.2677"></path>
                <polyline id="Path" stroke-width="2.2677" points="7.12 1.77 11.03 0.69 16.11 19.07"></polyline>
                <polyline id="Path" stroke-width="2.2677" points="6.97 6.28 9.34 5.62 11.02 11.7 3.42 13.81 2.85 11.73"></polyline>
                <polyline id="Path" stroke-width="2.2677" points="5.78 22.33 4.41 17.4 12.02 15.3 13.33 20.04"></polyline>
                <path d="M7.12,1.77 C8.11,6.48 5.28,11.21 0.58,12.51 C0.42,12.55 0.26,12.59 0.1,12.63" id="Path" stroke-width="2.2677"></path>
            </g>
            <path d="M31.38,137.95 L7.09,137.95" id="Path" stroke="#4B9CE9" stroke-width="2.2677" stroke-linecap="round" stroke-linejoin="round"></path>
            <path d="M72.46,124.57 L81.69,124.57" id="Path" stroke="#4B9CE9" stroke-width="2.2677" stroke-linecap="round" stroke-linejoin="round"></path>
            <path d="M72.46,132.21 L81.69,132.21" id="Path" stroke="#4B9CE9" stroke-width="2.2677" stroke-linecap="round" stroke-linejoin="round"></path>
            <path d="M72.46,132.21 L81.69,132.21" id="Path" stroke="#4B9CE9" stroke-width="2.2677" stroke-linecap="round" stroke-linejoin="round"></path>
            <path d="M72.46,139.86 L81.69,139.86" id="Path" stroke="#4B9CE9" stroke-width="2.2677" stroke-linecap="round" stroke-linejoin="round"></path>
            <path d="M72.46,139.86 L81.69,139.86" id="Path" stroke="#4B9CE9" stroke-width="2.2677" stroke-linecap="round" stroke-linejoin="round"></path>
            <path d="M72.46,147.5 L81.69,147.5" id="Path" stroke="#4B9CE9" stroke-width="2.2677" stroke-linecap="round" stroke-linejoin="round"></path>
            <path d="M72.46,147.5 L81.69,147.5" id="Path" stroke="#4B9CE9" stroke-width="2.2677" stroke-linecap="round" stroke-linejoin="round"></path>
            <path d="M72.46,155.14 L81.69,155.14" id="Path" stroke="#4B9CE9" stroke-width="2.2677" stroke-linecap="round" stroke-linejoin="round"></path>
            <path d="M72.46,155.14 L81.69,155.14" id="Path" stroke="#4B9CE9" stroke-width="2.2677" stroke-linecap="round" stroke-linejoin="round"></path>
            <path d="M72.46,162.78 L81.69,162.78" id="Path" stroke="#4B9CE9" stroke-width="2.2677" stroke-linecap="round" stroke-linejoin="round"></path>
            <path d="M72.46,162.78 L81.69,162.78" id="Path" stroke="#4B9CE9" stroke-width="2.2677" stroke-linecap="round" stroke-linejoin="round"></path>
            <path d="M72.46,170.42 L81.69,170.42" id="Path" stroke="#4B9CE9" stroke-width="2.2677" stroke-linecap="round" stroke-linejoin="round"></path>
            <path d="M72.46,178.06 L81.69,178.06" id="Path" stroke="#4B9CE9" stroke-width="2.2677" stroke-linecap="round" stroke-linejoin="round"></path>
            <path d="M72.46,185.71 L81.69,185.71" id="Path" stroke="#4B9CE9" stroke-width="2.2677" stroke-linecap="round" stroke-linejoin="round"></path>
            <path d="M72.46,185.71 L81.69,185.71" id="Path" stroke="#4B9CE9" stroke-width="2.2677" stroke-linecap="round" stroke-linejoin="round"></path>
            <path d="M72.46,193.35 L81.69,193.35" id="Path" stroke="#4B9CE9" stroke-width="2.2677" stroke-linecap="round" stroke-linejoin="round"></path>
            <path d="M72.46,200.99 L81.69,200.99" id="Path" stroke="#4B9CE9" stroke-width="2.2677" stroke-linecap="round" stroke-linejoin="round"></path>
            <polygon id="Path" fill="#4B9CE9" points="10.37 121.39 28.2 121.39 27.09 130.46 24.22 133.33 13.08 133.01 11.17 126.32"></polygon>
        </g>
    </g>
</svg>