<svg width="24" height="24" viewBox="0 0 24 24" fill="none" xmlns="http://www.w3.org/2000/svg">
<g id="Icons/Iconly Black/Bold/Plagiarism Checker">
<g id="Plagiarism Checker">
<path id="Combined Shape" fill-rule="evenodd" clip-rule="evenodd" d="M7.81 2H16.191C19.28 2 21 3.78 21 6.83V12.9608C20.3711 12.7527 19.6987 12.64 19 12.64C15.4875 12.64 12.64 15.4875 12.64 19C12.64 20.0849 12.9116 21.1063 13.3906 22H7.81C4.77 22 3 20.26 3 17.16V6.83C3 3.78 4.77 2 7.81 2ZM8.08 17.31C7.78 17.35 7.49 17.2 7.33 16.95C7.17 16.69 7.17 16.36 7.33 16.11C7.49 15.85 7.78 15.71 8.08 15.74H11.42C11.819 15.78 12.12 16.12 12.12 16.53C12.12 16.929 11.819 17.27 11.42 17.31H8.08ZM7.3 11.96C7.3 12.39 7.649 12.74 8.08 12.74H15.92C16.35 12.74 16.7 12.39 16.7 11.96C16.7 11.53 16.35 11.179 15.92 11.179H8.08C7.649 11.179 7.3 11.53 7.3 11.96ZM8.08 6.65H11.069C11.5 6.65 11.85 7 11.85 7.429C11.85 7.87 11.5 8.22 11.069 8.22H8.08C7.649 8.22 7.3 7.87 7.3 7.44C7.3 7.01 7.649 6.66 8.08 6.66V6.65ZM19 14.5C21.4853 14.5 23.5 16.5147 23.5 19C23.5 21.4853 21.4853 23.5 19 23.5C16.5147 23.5 14.5 21.4853 14.5 19C14.5 16.5147 16.5147 14.5 19 14.5ZM20.7659 17.3174L20.6887 17.3817L18.5394 19.5303L17.8085 18.7991L17.7403 18.7411C17.5254 18.5865 17.224 18.6058 17.0307 18.7991C16.8398 18.99 16.8185 19.2864 16.967 19.5008L17.0307 19.5769L18.151 20.6973L18.2192 20.7553C18.4072 20.8906 18.6615 20.8927 18.8516 20.7616L18.9288 20.6973L21.4665 18.1595L21.5245 18.0914C21.6599 17.9033 21.662 17.649 21.5309 17.4589L21.4665 17.3817L21.3984 17.3237C21.2103 17.1884 20.956 17.1863 20.7659 17.3174Z" fill="white"/>
</g>
</g>
</svg>
